HIERARCHY
ROOT Root
{
  OFFSET 0.0 0.0 0.0
  CHANNELS 6 Xposition Yposition Zposition Zrotation Yrotation Xrotation
  JOINT Hips
  {
    OFFSET 0.0 100.0 0.0
    CHANNELS 6 Xposition Yposition Zposition Zrotation Yrotation Xrotation
    JOINT Spine1
    {
      OFFSET 5.003913 -0.037094 -0.013727
      CHANNELS 3 Zrotation Yrotation Xrotation
      JOINT Spine2
      {
        OFFSET 7.125363 -1e-06 0.0
        CHANNELS 3 Zrotation Yrotation Xrotation
        JOINT Chest
        {
          OFFSET 7.594027 1e-06 0.0
          CHANNELS 3 Zrotation Yrotation Xrotation
          JOINT Neck1
          {
            OFFSET 26.313086 -0.460272 -0.181672
            CHANNELS 3 Zrotation Yrotation Xrotation
            JOINT Neck2
            {
              OFFSET 8.045911 0.0 0.0
              CHANNELS 3 Zrotation Yrotation Xrotation
              JOINT Head
              {
                OFFSET 6.432774 0.0 0.0
                CHANNELS 3 Zrotation Yrotation Xrotation
                JOINT HeadEnd
                {
                  OFFSET 16.169773 0.06451 0.00362
                  CHANNELS 3 Zrotation Yrotation Xrotation
                }
                JOINT Jaw
                {
                  OFFSET 0.108741 3.12938 0.002639
                  CHANNELS 3 Zrotation Yrotation Xrotation
                }
                JOINT LeftEye
                {
                  OFFSET 4.45173 8.166359 3.206392
                  CHANNELS 3 Zrotation Yrotation Xrotation
                }
                JOINT RightEye
                {
                  OFFSET 4.436895 8.135758 -3.222429
                  CHANNELS 3 Zrotation Yrotation Xrotation
                }
              }
            }
          }
          JOINT LeftShoulder
          {
            OFFSET 23.218927 5.195579 1.621656
            CHANNELS 3 Zrotation Yrotation Xrotation
            JOINT LeftArm
            {
              OFFSET 15.902118 2e-06 -2e-06
              CHANNELS 3 Zrotation Yrotation Xrotation
              JOINT LeftForeArm
              {
                OFFSET 28.739307 0.0 -1e-06
                CHANNELS 3 Zrotation Yrotation Xrotation
                JOINT LeftHand
                {
                  OFFSET 27.093981 -4e-06 0.0
                  CHANNELS 3 Zrotation Yrotation Xrotation
                  JOINT LeftHandThumb1
                  {
                    OFFSET 2.276781 3.380274 0.83384
                    CHANNELS 3 Zrotation Yrotation Xrotation
                    JOINT LeftHandThumb2
                    {
                      OFFSET 4.705309 -1e-06 -1e-06
                      CHANNELS 3 Zrotation Yrotation Xrotation
                      JOINT LeftHandThumb3
                      {
                        OFFSET 2.798515 0.0 3e-06
                        CHANNELS 3 Zrotation Yrotation Xrotation
                        JOINT LeftHandThumbEnd
                        {
                          OFFSET 3.180793 4e-06 -4e-06
                          CHANNELS 3 Zrotation Yrotation Xrotation
                        }
                      }
                    }
                  }
                  JOINT LeftHandIndex1
                  {
                    OFFSET 3.247786 2.352677 0.137192
                    CHANNELS 3 Zrotation Yrotation Xrotation
                    JOINT LeftHandIndex2
                    {
                      OFFSET 6.367095 1e-06 0.0
                      CHANNELS 3 Zrotation Yrotation Xrotation
                      JOINT LeftHandIndex3
                      {
                        OFFSET 3.662364 0.0 0.0
                        CHANNELS 3 Zrotation Yrotation Xrotation
                        JOINT LeftHandIndex4
                        {
                          OFFSET 2.329242 4e-06 -4e-06
                          CHANNELS 3 Zrotation Yrotation Xrotation
                          JOINT LeftHandIndexEnd
                          {
                            OFFSET 2.767823 1e-06 0.0
                            CHANNELS 3 Zrotation Yrotation Xrotation
                          }
                        }
                      }
                    }
                  }
                  JOINT LeftHandMiddle1
                  {
                    OFFSET 3.163612 0.945023 -0.406112
                    CHANNELS 3 Zrotation Yrotation Xrotation
                    JOINT LeftHandMiddle2
                    {
                      OFFSET 6.276789 3e-06 0.0
                      CHANNELS 3 Zrotation Yrotation Xrotation
                      JOINT LeftHandMiddle3
                      {
                        OFFSET 4.35652 -1e-06 4e-06
                        CHANNELS 3 Zrotation Yrotation Xrotation
                        JOINT LeftHandMiddle4
                        {
                          OFFSET 2.996877 0.0 8e-06
                          CHANNELS 3 Zrotation Yrotation Xrotation
                          JOINT LeftHandMiddleEnd
                          {
                            OFFSET 2.323256 3e-06 -4e-06
                            CHANNELS 3 Zrotation Yrotation Xrotation
                          }
                        }
                      }
                    }
                  }
                  JOINT LeftHandRing1
                  {
                    OFFSET 2.882606 -0.309162 0.107445
                    CHANNELS 3 Zrotation Yrotation Xrotation
                    JOINT LeftHandRing2
                    {
                      OFFSET 6.033198 0.0 4e-06
                      CHANNELS 3 Zrotation Yrotation Xrotation
                      JOINT LeftHandRing3
                      {
                        OFFSET 4.350578 3e-06 0.0
                        CHANNELS 3 Zrotation Yrotation Xrotation
                        JOINT LeftHandRing4
                        {
                          OFFSET 2.651321 2e-06 -7e-06
                          CHANNELS 3 Zrotation Yrotation Xrotation
                          JOINT LeftHandRingEnd
                          {
                            OFFSET 1.937663 1e-06 -4e-06
                            CHANNELS 3 Zrotation Yrotation Xrotation
                          }
                        }
                      }
                    }
                  }
                  JOINT LeftHandPinky1
                  {
                    OFFSET 2.865315 -1.525436 0.575687
                    CHANNELS 3 Zrotation Yrotation Xrotation
                    JOINT LeftHandPinky2
                    {
                      OFFSET 5.54936 1e-06 -8e-06
                      CHANNELS 3 Zrotation Yrotation Xrotation
                      JOINT LeftHandPinky3
                      {
                        OFFSET 3.070974 0.0 -4e-06
                        CHANNELS 3 Zrotation Yrotation Xrotation
                        JOINT LeftHandPinky4
                        {
                          OFFSET 1.549672 1e-06 0.0
                          CHANNELS 3 Zrotation Yrotation Xrotation
                          JOINT LeftHandPinkyEnd
                          {
                            OFFSET 1.952123 0.0 0.0
                            CHANNELS 3 Zrotation Yrotation Xrotation
                          }
                        }
                      }
                    }
                  }
                }
              }
            }
          }
          JOINT RightShoulder
          {
            OFFSET 23.161716 5.296122 -1.380114
            CHANNELS 3 Zrotation Yrotation Xrotation
            JOINT RightArm
            {
              OFFSET -16.027195 -2e-06 1.1e-05
              CHANNELS 3 Zrotation Yrotation Xrotation
              JOINT RightForeArm
              {
                OFFSET -28.736639 4e-06 2e-06
                CHANNELS 3 Zrotation Yrotation Xrotation
                JOINT RightHand
                {
                  OFFSET -27.133619 6e-06 0.0
                  CHANNELS 3 Zrotation Yrotation Xrotation
                  JOINT RightHandThumb1
                  {
                    OFFSET -2.274328 -3.351035 -0.83067
                    CHANNELS 3 Zrotation Yrotation Xrotation
                    JOINT RightHandThumb2
                    {
                      OFFSET -4.703594 -3e-06 2e-06
                      CHANNELS 3 Zrotation Yrotation Xrotation
                      JOINT RightHandThumb3
                      {
                        OFFSET -2.794935 -4e-06 -3e-06
                        CHANNELS 3 Zrotation Yrotation Xrotation
                        JOINT RightHandThumbEnd
                        {
                          OFFSET -3.183852 4e-06 1e-06
                          CHANNELS 3 Zrotation Yrotation Xrotation
                        }
                      }
                    }
                  }
                  JOINT RightHandIndex1
                  {
                    OFFSET -3.253496 -2.33755 -0.127667
                    CHANNELS 3 Zrotation Yrotation Xrotation
                    JOINT RightHandIndex2
                    {
                      OFFSET -6.344434 0.0 0.0
                      CHANNELS 3 Zrotation Yrotation Xrotation
                      JOINT RightHandIndex3
                      {
                        OFFSET -3.654871 0.0 -8e-06
                        CHANNELS 3 Zrotation Yrotation Xrotation
                        JOINT RightHandIndex4
                        {
                          OFFSET -2.327586 -1e-06 0.0
                          CHANNELS 3 Zrotation Yrotation Xrotation
                          JOINT RightHandIndexEnd
                          {
                            OFFSET -2.770001 3e-06 8e-06
                            CHANNELS 3 Zrotation Yrotation Xrotation
                          }
                        }
                      }
                    }
                  }
                  JOINT RightHandMiddle1
                  {
                    OFFSET -3.168223 -0.944764 0.411762
                    CHANNELS 3 Zrotation Yrotation Xrotation
                    JOINT RightHandMiddle2
                    {
                      OFFSET -6.266691 -1e-06 -4e-06
                      CHANNELS 3 Zrotation Yrotation Xrotation
                      JOINT RightHandMiddle3
                      {
                        OFFSET -4.348901 0.0 0.0
                        CHANNELS 3 Zrotation Yrotation Xrotation
                        JOINT RightHandMiddle4
                        {
                          OFFSET -3.00024 2e-06 -4e-06
                          CHANNELS 3 Zrotation Yrotation Xrotation
                          JOINT RightHandMiddleEnd
                          {
                            OFFSET -2.321477 -4e-06 -4e-06
                            CHANNELS 3 Zrotation Yrotation Xrotation
                          }
                        }
                      }
                    }
                  }
                  JOINT RightHandRing1
                  {
                    OFFSET -2.885654 0.293261 -0.119232
                    CHANNELS 3 Zrotation Yrotation Xrotation
                    JOINT RightHandRing2
                    {
                      OFFSET -6.032835 -1e-06 -4e-06
                      CHANNELS 3 Zrotation Yrotation Xrotation
                      JOINT RightHandRing3
                      {
                        OFFSET -4.33881 0.0 -4e-06
                        CHANNELS 3 Zrotation Yrotation Xrotation
                        JOINT RightHandRing4
                        {
                          OFFSET -2.654903 -4e-06 -4e-06
                          CHANNELS 3 Zrotation Yrotation Xrotation
                          JOINT RightHandRingEnd
                          {
                            OFFSET -1.935122 0.0 4e-06
                            CHANNELS 3 Zrotation Yrotation Xrotation
                          }
                        }
                      }
                    }
                  }
                  JOINT RightHandPinky1
                  {
                    OFFSET -2.866241 1.503904 -0.60527
                    CHANNELS 3 Zrotation Yrotation Xrotation
                    JOINT RightHandPinky2
                    {
                      OFFSET -5.553177 -2e-06 0.0
                      CHANNELS 3 Zrotation Yrotation Xrotation
                      JOINT RightHandPinky3
                      {
                        OFFSET -3.062664 -1e-06 -4e-06
                        CHANNELS 3 Zrotation Yrotation Xrotation
                        JOINT RightHandPinky4
                        {
                          OFFSET -1.546529 2e-06 4e-06
                          CHANNELS 3 Zrotation Yrotation Xrotation
                          JOINT RightHandPinkyEnd
                          {
                            OFFSET -1.952341 0.0 -4e-06
                            CHANNELS 3 Zrotation Yrotation Xrotation
                          }
                        }
                      }
                    }
                  }
                }
              }
            }
          }
        }
      }
    }
    JOINT LeftLeg
    {
      OFFSET -8.443107 2.567604 10.043214
      CHANNELS 3 Zrotation Yrotation Xrotation
      JOINT LeftShin
      {
        OFFSET 43.229198 1e-06 -1e-06
        CHANNELS 3 Zrotation Yrotation Xrotation
        JOINT LeftFoot
        {
          OFFSET 42.298611 1e-06 1e-06
          CHANNELS 3 Zrotation Yrotation Xrotation
          JOINT LeftToeBase
          {
            OFFSET 14.165858 1e-06 0.0
            CHANNELS 3 Zrotation Yrotation Xrotation
            JOINT LeftToeEnd
            {
              OFFSET 6.7141 -0.234461 0.0
              CHANNELS 3 Zrotation Yrotation Xrotation
            }
          }
        }
      }
    }
    JOINT RightLeg
    {
      OFFSET -8.303923 2.592729 -10.047278
      CHANNELS 3 Zrotation Yrotation Xrotation
      JOINT RightShin
      {
        OFFSET -43.369682 0.0 1e-06
        CHANNELS 3 Zrotation Yrotation Xrotation
        JOINT RightFoot
        {
          OFFSET -42.260784 4e-06 2e-06
          CHANNELS 3 Zrotation Yrotation Xrotation
          JOINT RightToeBase
          {
            OFFSET -14.222245 -2e-06 -1e-06
            CHANNELS 3 Zrotation Yrotation Xrotation
            JOINT RightToeEnd
            {
              OFFSET -6.660062 0.232574 -2e-06
              CHANNELS 3 Zrotation Yrotation Xrotation
            }
          }
        }
      }
    }
  }
}
MOTION
Frames: 4
Frame Time: 0.03333333333333333
0.0 0.0 0.0 0.0 -0.0 0.0 1.27572 98.77282 5.68421 89.737732 2.731305 90.134392 -0.602669 0.891924 -0.300172 -11.348341 -0.455601 -0.333253 17.503521 -0.364363 -2.895684 26.401571 0.617869 2.743601 -2.502604 -0.642527 -1.241602 -29.942238 -0.841191 -1.366554 6e-06 -0.0 -0.0 -0.011167 0.014504 0.011855 0.00783 0.087503 0.019566 0.008914 -0.060705 0.006591 -106.78157 -74.119598 128.21315 54.749668 -56.582497 -2.855748 19.594681 0.178517 0.049332 -0.907132 2.446671 14.149316 17.636623 -26.322723 52.411182 -19.466658 -14.395592 29.410389 0.0 -8.774819 -2e-06 16.06739 -17.845913 6.057331 -0.609777 -1.795656 -3.889326 -4.807087 -11.046811 -2.93785 5e-06 -20.976017 -4e-06 -5.019968 -25.03356 -4.031881 6e-06 0.0 -0.0 -10.634533 -5.686971 -3.565585 10.573271 -17.922949 -3.113901 2e-06 -13.821209 -1e-06 -0.501775 -31.181498 -4.027016 -11.353413 -59.885132 7.279503 -13.982712 -7.150198 -2.875039 13.772727 -8.401491 -3.218239 0.347737 -34.211552 0.771649 -0.963029 -17.733372 2.621021 -0.0 -2e-06 1e-06 -17.346416 -20.095215 -4.201777 21.757555 -1.638375 3.866427 2e-06 -6.338823 0.0 -1.697588 -22.591742 -6.194006 1e-06 -4e-06 -1e-06 50.364109 -73.734879 152.861725 44.740082 -58.985554 -18.350306 27.374872 0.224432 0.262195 -3.287998 6.171282 14.568752 22.182114 -20.375898 49.933319 -16.701811 -16.743528 28.476528 -3e-06 -12.690601 -1e-06 16.133648 -17.736042 2.668755 -0.105919 -1.513856 -4.27588 -5.039041 -5.612872 -2.953555 4e-06 -11.020525 -3e-06 -6.111297 -15.895334 -3.840471 0.0 -0.0 1e-06 -10.283369 -5.680288 -4.341838 11.028292 -11.302404 -2.372633 -1.384269 -14.238579 -6.320119 -0.625439 -26.924187 -3.8276 -4.049389 -49.848 -3.912597 -13.708525 -7.363475 -3.720938 18.141146 -14.052736 -3.242674 5e-06 -18.78727 -2e-06 -0.429712 -8.456043 2.555503 0.0 0.0 -1e-06 -15.923534 -20.094482 -5.473585 30.41921 -7.190827 1.735928 4e-06 -8.162925 -1e-06 -1.8619 -22.861473 -6.167942 -0.0 -6e-06 -3e-06 176.249512 -6.341192 -1.05576 21.581097 -0.074974 0.092561 -84.382713 3.966178 -7.101737 -11.099341 1.691543 2.010232 -0.999999 0.0 0.0 -5.433147 -3.621302 -2.774526 23.476446 -0.044634 0.14677 -83.982536 -2.461265 -9.178495 -10.751071 0.813469 1.577875 -1.000001 -0.0 -0.0 
0.0 0.0 0.0 0.0 -0.0 0.0 1.205075 98.780533 5.667834 89.583267 2.680996 89.984245 -0.516475 0.95436 -0.329421 -11.327991 -0.422269 -0.296794 17.533758 -0.3038 -2.948516 26.497957 0.272832 2.742972 -2.490181 -0.621377 -1.201442 -29.941156 -0.956413 -1.308176 6e-06 -0.0 -0.0 -0.015498 0.012071 0.040346 -0.006039 0.086908 0.046025 -0.006949 -0.065051 0.036814 -106.382561 -74.21093 127.895897 55.177029 -56.611908 -3.154208 19.561174 0.209547 0.01587 -0.845545 2.36187 14.371027 17.636635 -26.322733 52.411194 -19.466665 -14.395598 29.410389 -0.0 -8.774822 -3e-06 16.076485 -17.823088 6.043152 -0.609776 -1.795654 -3.889328 -4.807089 -11.046813 -2.937849 5e-06 -20.976021 -4e-06 -5.019972 -25.033562 -4.03188 5e-06 1e-06 -0.0 -10.634535 -5.686972 -3.565588 10.573277 -17.922955 -3.113901 4e-06 -13.821211 1e-06 -0.50178 -31.181507 -4.027011 -11.326963 -59.93306 7.334805 -13.982716 -7.150198 -2.875039 13.772733 -8.401495 -3.218241 0.347737 -34.211559 0.771653 -0.963028 -17.733374 2.621023 -0.0 -2e-06 0.0 -17.346422 -20.095221 -4.201784 21.757566 -1.638376 3.866431 1e-06 -6.338825 0.0 -1.69759 -22.591751 -6.194007 0.0 -4e-06 -1e-06 50.449726 -73.73893 152.823868 44.821098 -59.046112 -18.616108 27.473845 0.19748 0.266833 -3.059783 6.215244 14.399525 22.182121 -20.375891 49.933323 -16.701817 -16.74353 28.476534 -2e-06 -12.690604 -0.0 16.150873 -17.71804 2.644939 -0.105919 -1.513856 -4.275884 -5.039043 -5.612873 -2.953557 4e-06 -11.020525 -3e-06 -6.1113 -15.895336 -3.840472 0.0 -0.0 -1e-06 -10.283373 -5.68029 -4.341838 11.028296 -11.302406 -2.372634 -1.384269 -14.238585 -6.320123 -0.625437 -26.924194 -3.827603 -4.053734 -49.954247 -3.876077 -13.708527 -7.363479 -3.720938 18.141155 -14.05274 -3.242676 6e-06 -18.787271 -4e-06 -0.429711 -8.456046 2.555503 -0.0 2e-06 0.0 -15.923539 -20.09449 -5.473587 30.419222 -7.190827 1.735926 3e-06 -8.162927 -3e-06 -1.861905 -22.861473 -6.167946 -0.0 -3e-06 -2e-06 176.179504 -6.563391 -1.095953 21.652853 -0.066106 0.137403 -84.424675 3.86205 -7.282202 -11.23283 1.704418 2.007469 -0.999999 0.0 0.0 -5.452983 -3.383908 -2.665642 23.328707 -0.043705 0.154309 -83.876862 -2.516699 -9.143871 -10.876119 0.80656 1.577607 -1.000002 0.0 -0.0 
0.0 0.0 0.0 0.0 -0.0 0.0 1.13349 98.761978 5.616461 89.41246 2.60558 89.794601 -0.412667 1.033522 -0.361941 -11.31614 -0.39981 -0.288919 17.647766 -0.22169 -2.95279 26.576431 -0.170801 2.75246 -2.512546 -0.595888 -1.187189 -29.921427 -1.072179 -1.24278 6e-06 -0.0 -0.0 -0.017625 0.012998 0.049201 -0.026046 0.086432 0.057838 -0.025036 -0.06315 0.04253 -105.992462 -74.293182 127.588074 55.580791 -56.603592 -3.318475 19.69239 0.230274 -0.006897 -0.788209 2.216769 14.473063 17.636627 -26.322733 52.411201 -19.466665 -14.395598 29.410395 0.0 -8.774822 -2e-06 16.090685 -17.850891 6.046706 -0.609777 -1.795653 -3.889328 -4.807089 -11.046811 -2.93785 5e-06 -20.976017 -3e-06 -5.019971 -25.03356 -4.03188 6e-06 0.0 0.0 -10.634536 -5.686971 -3.565587 10.573276 -17.922951 -3.113902 4e-06 -13.821209 -1e-06 -0.501777 -31.181505 -4.027016 -11.375924 -59.92873 7.357233 -13.982715 -7.150198 -2.875041 13.772729 -8.401491 -3.218241 0.347733 -34.211552 0.771652 -0.96303 -17.733366 2.621019 0.0 -2e-06 -2e-06 -17.346422 -20.095219 -4.201782 21.757561 -1.638374 3.866428 2e-06 -6.338824 -0.0 -1.697589 -22.591747 -6.194008 -1e-06 -3e-06 -1e-06 50.510616 -73.762741 152.789627 44.976513 -59.042553 -18.790663 27.565361 0.190511 0.255081 -2.818628 6.275033 14.250058 22.182117 -20.375895 49.933319 -16.701811 -16.743528 28.476532 -3e-06 -12.6906 -2e-06 16.144705 -17.681938 2.649837 -0.105921 -1.513857 -4.275881 -5.03904 -5.61287 -2.953557 4e-06 -11.020525 -3e-06 -6.111297 -15.895332 -3.840473 0.0 -0.0 -1e-06 -10.28337 -5.680288 -4.341837 11.028294 -11.302405 -2.372633 -1.384269 -14.238579 -6.32012 -0.625438 -26.924187 -3.8276 -4.054304 -49.965759 -3.851024 -13.708525 -7.363475 -3.72094 18.141148 -14.052739 -3.242674 7e-06 -18.78727 -3e-06 -0.42971 -8.456045 2.555503 -0.0 0.0 -1e-06 -15.923536 -20.094482 -5.473587 30.41921 -7.190827 1.735927 4e-06 -8.162927 -1e-06 -1.8619 -22.861473 -6.167943 -1e-06 -3e-06 -2e-06 175.958786 -6.804099 -1.145251 21.946951 -0.069159 0.160046 -84.559235 3.763384 -7.372138 -11.291678 1.702095 2.006155 -1.0 0.0 0.0 -5.618621 -3.124387 -2.485723 23.362484 -0.038028 0.147802 -83.830017 -2.627028 -9.18467 -10.902267 0.808818 1.576791 -1.000002 -0.0 0.0 
0.0 0.0 0.0 0.0 -0.0 0.0 1.064285 98.750465 5.526109 89.205963 2.507415 89.581322 -0.280294 1.132914 -0.386158 -11.296493 -0.37378 -0.297296 17.778046 -0.121913 -2.924042 26.625368 -0.67106 2.747426 -2.53652 -0.585297 -1.135774 -29.989117 -1.15675 -1.179876 6e-06 0.0 -0.0 -0.017874 0.013956 0.049661 -0.04452 0.085825 0.061871 -0.040986 -0.061085 0.039195 -105.591789 -74.361694 127.259727 55.9865 -56.604492 -3.364457 19.90134 0.274386 -0.003742 -0.71497 2.055202 14.633995 17.636629 -26.322737 52.411194 -19.466661 -14.395596 29.410393 -0.0 -8.774822 -4e-06 16.077652 -17.867058 6.06181 -0.609777 -1.795655 -3.889326 -4.807087 -11.046811 -2.937852 5e-06 -20.976017 -1e-06 -5.019969 -25.033554 -4.031878 6e-06 -1e-06 -1e-06 -10.634534 -5.68697 -3.565586 10.573272 -17.922951 -3.113901 3e-06 -13.821206 -0.0 -0.50178 -31.181498 -4.027012 -11.395362 -59.909489 7.357529 -13.982713 -7.150198 -2.875042 13.77273 -8.401493 -3.218241 0.347733 -34.211555 0.771658 -0.96303 -17.733376 2.621019 0.0 1e-06 0.0 -17.346416 -20.095217 -4.201781 21.757557 -1.638376 3.866428 2e-06 -6.338823 -0.0 -1.697588 -22.591745 -6.194005 -0.0 -3e-06 -1e-06 50.600571 -73.838409 152.709534 45.201843 -59.003963 -18.757557 27.609356 0.233085 0.247068 -2.633626 6.246316 14.096025 22.182108 -20.375891 49.933308 -16.701813 -16.743528 28.47653 -4e-06 -12.6906 -1e-06 16.138237 -17.654448 2.669872 -0.105919 -1.513857 -4.275881 -5.039041 -5.612872 -2.953557 5e-06 -11.020525 -4e-06 -6.111297 -15.895334 -3.840469 0.0 1e-06 -3e-06 -10.283369 -5.680288 -4.341839 11.028295 -11.302404 -2.372632 -1.384268 -14.238579 -6.32012 -0.625435 -26.924187 -3.827602 -4.074919 -49.934078 -3.808946 -13.708523 -7.363475 -3.720939 18.14115 -14.05274 -3.242677 7e-06 -18.787271 -4e-06 -0.429712 -8.456043 2.555503 0.0 0.0 -1e-06 -15.923531 -20.094484 -5.473587 30.41921 -7.190829 1.735925 3e-06 -8.162925 -2e-06 -1.861899 -22.861473 -6.167946 -0.0 -6e-06 -3e-06 175.687241 -7.089218 -1.240208 22.252857 -0.077657 0.172571 -84.669785 3.667489 -7.442028 -11.319911 1.693099 2.002636 -0.999998 0.0 0.0 -5.806784 -2.81513 -2.2586 23.332081 -0.032725 0.129204 -83.71891 -2.755327 -9.242818 -10.886705 0.807329 1.573972 -1.000001 -0.0 0.0 
